<svg width="269" height="196" viewBox="0 0 269 196" fill="none" xmlns="http://www.w3.org/2000/svg">
<path fill-rule="evenodd" clip-rule="evenodd" d="M48.5 187.5H57V195.5H0V187.5H9.93262V150.5L7.28906 151L7 137.5L48.5 133.5V187.5ZM14.5 166.705V187.5H20.3545C20.4337 187.167 20.8238 186.51 20.8428 186.448C20.8612 186.385 20.817 186.204 20.9404 185.837C21.064 185.47 21.0742 185.162 21.0742 185.108C21.0742 185.055 20.8521 184.014 20.7725 183.715C20.693 183.417 20.354 182.184 20.3037 182.012C20.254 181.842 20.3232 181.415 20.3232 181.415L20.165 181.293C20.1098 181.107 19.9271 177.729 19.9072 177.313C19.8507 176.133 19.5256 174.73 20.2041 173.671C20.3375 173.468 20.4255 173.232 20.5449 173.021C20.5692 172.979 20.6339 172.787 20.6836 172.75C20.7324 172.714 20.8749 172.672 20.8809 172.67C20.9748 172.596 20.9895 172.351 21.0293 172.25C21.0688 172.149 21.0049 172.026 21.0049 172.026C20.8615 171.861 20.9512 171.425 20.9512 171.425C20.5651 171.377 20.8072 170.167 20.8848 169.994C20.9759 169.796 21.1863 169.725 21.3643 169.666C21.4029 169.652 21.4646 169.684 21.4922 169.671C21.5187 169.658 21.5322 169.642 21.6084 169.564C21.6839 169.489 21.7183 169.613 21.7197 169.618C21.9772 169.446 22.4028 169.507 22.4492 169.528C23.1273 169.824 23.2734 170.23 23.3428 170.86C23.3758 171.161 23.3088 171.416 23.2207 171.683C23.2037 171.734 23.2464 171.741 23.25 171.741C23.2199 171.752 23.1753 171.671 23.1504 171.713C23.0329 171.946 23.4362 172.351 23.043 172.352C22.9666 172.352 23.008 172.488 22.9785 172.521C22.9498 172.554 22.9165 172.601 22.9121 172.657C22.9046 172.751 22.7637 172.763 22.7637 172.804C22.7835 172.918 22.7383 173.04 22.6621 173.088C22.4647 173.21 22.0495 172.829 21.9688 173.264C21.9643 173.287 22.1062 173.407 22.1338 173.437C22.3627 173.683 22.4965 173.99 22.6875 174.267C22.6875 174.267 23.0981 174.105 23.2686 174.049C23.6579 173.922 24.7066 174.649 24.9258 174.949C24.9777 174.808 25.0793 174.814 25.1533 174.818C25.2614 174.826 25.2206 175.236 25.2822 175.141C25.3932 174.968 25.7433 175.257 25.7832 175.396C25.8418 175.603 25.6815 176.214 25.5254 176.396C25.4316 176.509 25.0709 176.693 25.0537 176.859C25.0514 176.882 25.0363 177.001 24.9912 177.035C24.9471 177.069 24.8648 177.08 24.8604 177.08C24.5772 177.37 24.2365 177.593 23.876 177.751C23.7255 177.922 23.6581 177.948 23.4561 177.874C23.2973 178.323 23.6156 179.076 23.7275 179.496C23.7773 179.682 23.847 180.586 23.8613 180.868C23.8768 181.15 23.7673 182.985 23.7529 183.177C23.7375 183.369 23.7192 184.603 23.7236 184.779C23.7281 184.954 23.7331 185.098 23.6934 185.119C23.6532 185.14 22.9658 185.055 22.9658 185.055C22.9658 185.055 22.9706 185.104 22.9463 185.119C22.9208 185.135 22.8564 185.178 22.8564 185.178C22.8578 185.195 22.8965 185.706 22.8867 186.124C22.8768 186.55 22.6204 186.641 22.5508 186.832C22.5197 186.918 22.496 187.196 22.4756 187.5H29.0713C29.1593 186.945 29.2994 186.447 29.1221 185.83C28.933 185.172 28.9014 184.475 28.7666 183.805C28.7496 183.72 28.7301 183.452 28.7139 183.2L28.6787 182.695L27.8877 182.713C27.8735 182.114 27.8838 181.494 28.041 180.912C28.1051 180.676 28.1472 180.409 28.1289 180.245C28.112 180.082 28.07 179.594 28.0762 179.56C28.0969 179.442 28.4002 179.478 28.2871 179.219C28.2512 179.135 27.4313 178.972 27.333 178.921C26.4851 178.476 26.8824 177.289 26.9912 176.562C27.0811 175.963 27.1618 175.355 27.2842 174.762C27.5378 173.533 28.1635 173.527 29.1406 173.144C29.4047 173.04 29.5835 172.753 29.8545 172.664C30.1556 172.573 29.3222 170.911 29.4736 170.482C29.524 170.34 29.5672 169.772 29.8604 169.943C29.8604 169.943 29.7207 169.828 29.6553 169.846C29.6553 169.846 29.7073 169.816 29.8721 169.895C29.8721 169.895 29.7963 169.779 29.8721 169.676C29.8721 169.676 29.8438 169.877 29.9365 169.853C30.0308 169.828 30.0429 169.688 30.2354 169.622C30.4291 169.556 30.8506 169.477 30.9736 169.507C31.1237 169.543 31.5496 169.679 31.6748 169.598L31.6279 169.643C31.5995 169.663 31.5613 169.679 31.5234 169.664C31.4475 169.634 31.6348 169.803 31.7461 169.784C31.7461 169.784 31.7007 169.859 31.6035 169.849L31.5586 169.839C31.5621 169.846 31.6326 169.983 31.7637 169.954L31.627 170.08C31.857 170.335 31.9664 170.703 32.0703 171.025C32.1114 171.037 32.2989 171.144 32.2842 171.193C32.2391 171.333 32.299 171.592 32.085 171.598C32.161 171.806 31.9543 172.538 31.8438 172.758C31.8072 172.829 31.5017 172.897 31.501 172.906C31.6777 173.05 31.8402 173.192 32.0244 173.324C32.4811 173.653 33.3577 173.577 33.6797 174.102C34.1374 174.844 34.3097 175.823 34.4854 176.674C34.6311 177.38 35.1608 179.337 33.8008 179.211C33.6345 179.195 33.5075 179.077 33.416 178.942C33.416 178.942 33.4706 179.474 33.4707 179.494C33.4707 179.513 33.5309 179.513 33.5361 179.528C33.6778 179.932 34.2916 182.813 33.5322 182.813C33.5635 183.581 33.7276 184.632 33.459 185.369C33.2479 185.949 33.3391 186.748 33.4883 187.5H39.5V164.867L14.5 166.705ZM31.0049 182.64C30.8116 182.664 30.9581 183.3 30.9443 183.422C30.7937 184.759 30.8547 186.135 30.8633 187.5H31.9297C31.656 185.232 31.2793 182.606 31.0049 182.64ZM24.2334 175.82C24.1698 175.841 24.1176 175.806 24.0605 175.784L24.002 175.77C24.002 175.77 23.902 176.234 23.8125 176.324C23.7242 176.415 23.6289 176.5 23.6289 176.533C23.629 176.566 23.6766 176.646 23.7031 176.641C23.7927 176.62 24.8841 176.366 24.8281 176.137C24.8235 176.133 24.8233 176.025 24.8252 175.911L24.833 175.65L24.2334 175.82ZM14.5 149.493V160.646L22.5 159.94V148.5L14.5 149.493ZM30.5 147.493V159.234L39.5 158.44V146.5L30.5 147.493Z" fill="#C6D2E0"/>
<path d="M81.5 135C119.5 135 132.667 139.333 134 141.5V150.5C131.876 149.635 127.525 148.362 120 147.258V195.5H112.5V146.343C104.689 145.557 94.5322 145 81.5 145C76.5197 145 72.4037 145.17 69 145.457V195.5H61.5V146.463C53.5313 148.061 52.7618 150.523 52.5 151.5V142C52.5 142 58.5 135 81.5 135Z" fill="#C6D2E0"/>
<path d="M107.598 153L107.717 165.612C106.986 164.347 106.361 162.663 104.929 162.401C104.157 162.261 103.284 162.763 102.791 163.34C102.529 163.647 102.494 164.389 102.462 164.544C102.295 165.302 102.272 166.057 102.082 166.815C101.956 167.319 102.209 167.585 102.134 167.865C102.058 168.148 101.805 168.345 101.771 168.719C101.737 169.091 101.5 169.992 101.631 170.299C100.781 170.304 99.9258 170.282 99.0771 170.297C99.0782 170.291 99.1024 170.167 99.0322 170.141C98.9605 170.114 98.8584 170.238 98.7734 170.213C98.69 170.186 98.2559 170.207 98.2559 170.207C98.2045 170.188 98.0234 170.143 98.0234 170.143C97.9915 169.885 98.0839 169.63 98.0176 169.365C97.8321 168.622 96.8566 168.282 96.7529 167.551C96.7141 167.379 96.4547 167.03 96.4434 167.015C96.4622 166.95 96.5977 166.563 96.5977 166.563C96.9603 166.499 97.2189 166.388 97.3662 166.264C97.6712 166.01 97.9456 165.111 97.8652 164.722C97.8207 164.505 97.9969 164.349 98.0146 164.115C98.0375 163.811 98.1563 163.569 98.1562 163.294L98.1826 163.32C98.1019 163.19 98.3347 163.076 98.335 162.936C98.335 162.47 98.0089 161.99 97.627 161.766C97.5684 161.731 97.4831 161.62 97.4736 161.662C97.4661 161.704 97.3649 161.832 97.2725 161.766C97.0707 161.616 97.4706 161.437 97.127 161.61C96.9795 161.685 96.8991 161.659 96.7637 161.584C96.6586 161.613 96.4589 161.66 96.3486 161.644C96.2997 161.636 96.2663 161.595 96.2637 161.592C96.2003 161.58 95.9778 161.759 95.9404 161.7C95.7809 161.45 95.0134 162.07 94.8662 162.186C94.3616 162.554 94.401 163.303 94.4092 163.842C94.3582 164.038 94.5108 164.677 94.5449 164.722C94.6553 164.864 94.6406 165.265 94.5791 165.43C94.7601 165.22 94.6737 165.901 94.5957 165.951C94.5541 165.976 94.4276 165.883 94.3672 165.841C94.2341 165.745 94.0932 166.223 94.0215 166.266C93.5566 166.543 92.9887 166.472 92.4844 166.677C92.1878 166.797 91.5794 167.394 91.3018 167.727C90.9901 168.1 90.3113 173.234 91.5215 173.448C91.6695 173.474 91.9956 173.426 92.0098 173.424L92.1123 173.714C92.1106 173.715 91.9515 173.834 91.9102 173.876C91.4569 174.334 91.4066 176.799 91.3115 177.436C91.1606 178.351 90.986 179.697 91.5664 180.431C92.1229 181.157 91.6601 182.498 92.0215 183.274C92.097 183.437 92.2328 183.881 92.2158 183.992C92.1987 184.103 92.0897 184.154 92.0557 184.309C92.0217 184.463 92.0802 184.872 92.0557 185.01C92.0309 185.147 91.8947 185.206 91.8438 185.258C91.7935 185.31 91.912 185.548 91.9365 185.634C91.9602 185.72 91.6082 186.189 91.5742 186.266C91.5403 186.342 91.5153 186.615 91.5059 186.872C91.469 188.12 91.114 189.334 91.2021 190.596C91.2473 191.238 91.5213 191.623 90.9658 192.015C90.8473 192.099 91.0757 192.442 91.1191 192.535C91.1607 192.629 91.338 192.604 91.3984 192.629C91.4563 192.654 91.1525 192.739 91.1016 192.749C90.9138 192.778 91.019 193.557 91.1016 193.687C90.9051 194.084 90.8356 194.645 90.8057 195.095C90.7897 195.335 91.35 195.45 92.0684 195.5H84V155L107.598 153Z" fill="#C6D2E0"/>
<path d="M100.397 172.426C100.517 172.758 101.133 173.22 101.133 173.22C101.125 173.265 101.139 174.229 101.14 174.244C101.755 174.313 102.236 174.533 102.239 174.534C102.166 175.362 101.862 176.618 102.145 177.403C102.228 177.63 102.555 177.691 102.567 177.693C102.563 177.706 102.271 178.609 102.213 178.863C101.914 180.168 101.898 181.762 101.993 183.099C102.01 183.337 101.935 184.21 101.942 184.448C101.95 184.686 102.144 184.824 102.195 184.9C102.369 185.161 102.306 185.478 102.306 185.738C102.306 185.79 102.398 185.773 102.415 185.832C102.752 187.006 102.464 188.423 102.559 189.64C102.583 189.956 103.04 191.707 103.099 191.877C103.157 192.047 102.853 192.218 102.777 192.329C102.702 192.44 102.845 193.047 102.828 193.089C102.658 193.509 102.532 193.933 102.084 194.062C102.057 194.069 101.797 193.994 101.746 194.011C101.458 194.108 101.907 195.146 101.926 195.2C102.33 195.304 103.272 195.409 103.623 195.165C103.818 195.03 103.767 194.772 103.825 194.337C103.884 193.902 104.383 193.356 104.577 193.329C104.772 193.302 104.813 194.148 104.813 194.148C104.625 194.158 104.514 194.08 104.383 194.259C104.253 194.436 104.557 195.125 104.619 195.291C104.638 195.293 105.78 195.436 106.231 195.402C106.857 195.355 106.849 194.873 107.018 194.377C107.124 194.064 107.597 193.524 107.98 193.508L107.998 195.329C107.995 195.347 107.993 195.363 107.99 195.375H107.998L108 195.5H94.5293C94.7616 195.49 94.9319 195.483 95.0039 195.479C95.2908 195.461 95.3174 195.247 95.3174 195.247C95.6848 195.275 98.5186 195.57 98.5186 194.973C98.5185 194.518 97.5834 194.475 97.3018 194.435C96.9722 194.387 96.5454 193.943 96.3389 193.727C96.1402 193.518 95.8539 193.391 95.6455 193.181C95.5872 193.122 95.7135 193.035 95.7891 192.891C95.8954 192.686 95.7352 192.168 95.6875 191.976C95.6621 191.869 95.9161 191.5 95.9844 191.396C96.194 191.08 96.0931 190.548 96.1611 190.184C96.2121 189.911 96.2129 189.279 96.2129 188.834C96.2131 188.304 96.6313 187.735 96.4922 187.212C96.4582 187.084 96.3823 187.075 96.3652 186.846C96.3355 186.442 96.694 186.446 96.7451 186.102C96.7697 185.922 96.9398 185.691 97.0078 185.494C97.3248 184.578 97.2859 183.594 97.4893 182.65C97.7094 181.64 98.2931 180.594 98.0801 179.525C97.9781 179.014 97.9198 178.8 97.9443 178.773C97.9693 178.746 98.1965 178.595 98.1631 178.509C98.1291 178.423 97.8842 178.27 97.9102 178.201C97.9939 177.967 97.7368 177.727 97.791 177.569C97.8325 177.449 97.9351 177.176 97.9521 176.955C97.9766 176.637 97.6895 176.452 97.6895 176.188C97.782 176.077 97.8156 175.888 97.7646 175.59C97.7147 175.296 97.7703 174.955 97.7725 174.941C97.7725 174.941 97.8574 174.899 98.0518 174.804C98.9875 174.354 99.453 173.278 100.094 172.63C100.144 172.579 100.103 172.413 100.102 172.408L100.397 172.426Z" fill="#C6D2E0"/>
<path d="M133 151.5V195.5H124V152.5L133 151.5Z" fill="#C6D2E0"/>
<path fill-rule="evenodd" clip-rule="evenodd" d="M268.5 144.5L268.788 157L263 155.5V187.5H268V195.5H138V128L207 123.5L268.5 144.5ZM144.5 159.259V187.5H155.5V158.777L144.5 159.259ZM164 158.404V187.5H176V157.879L164 158.404ZM186 157.441V187.5H198V156.916L186 157.441ZM216 187.5H226.5V160.817L216 158.432V187.5ZM236.5 187.5H247V165.477L236.5 163.091V187.5ZM236.5 156.591L247 158.977V149.979L236.5 146.979V156.591ZM216 151.932L226.5 154.317V143.191L216 140.191V151.932ZM144.5 141.004V153.219L155.5 152.656V140.5L144.5 141.004ZM164 138.993V152.222L176 151.609V138.5L164 138.993ZM186 137.998V151.098L198 150.485V137.5L186 137.998Z" fill="#C6D2E0"/>
<path d="M76.0117 160.529C76.0917 160.695 76.5187 160.537 76.6123 160.515C76.7484 160.482 76.9111 160.614 77.0146 160.589C77.6963 160.426 78.7365 161.464 79.1162 161.933C79.6553 162.598 79.0563 164.18 78.5596 164.775C78.4287 164.932 78.346 164.93 78.3086 164.917C78.3123 165.012 78.293 165.259 78.3135 165.363C78.3881 165.373 79.0532 166.067 79.1182 166.084C79.1825 166.101 79.826 166.404 80.2441 166.567C80.6627 166.731 81.3449 167.003 81.459 167.183C82.3916 168.658 81.9404 170.657 82.5225 172.139C82.7149 172.628 82.8924 173.432 82.4814 173.877C82.1219 174.266 81.1818 174.462 80.7441 174.106C80.5853 173.975 80.1268 173.671 80.1162 173.664L80.1729 174.99C80.802 175.604 80.6019 178.828 80.667 179.759C80.555 179.93 79.7093 179.922 79.7012 179.947C79.6925 179.977 79.6288 180.701 79.6611 180.872C79.6936 181.046 79.6201 181.57 79.6201 181.774C79.6201 183.303 79.1626 184.745 79.4658 186.263C79.4902 186.385 79.738 186.87 79.7949 187.017C79.8515 187.165 79.7458 188 79.7539 188.163C79.7623 188.327 79.9228 189.014 79.9717 189.187C80.2554 190.185 80.0953 191.278 80.374 192.293C80.4553 192.589 80.1725 192.728 80.1807 192.786C80.3025 193.655 79.949 194.063 80.7031 194.425C80.8088 194.474 80.7198 194.588 80.7686 194.604C81.1352 194.734 81.0334 194.914 81.1709 195.194C81.1952 195.244 81.1304 195.35 81.1543 195.358C81.1149 195.367 78.4104 195.408 78.3945 195.408C78.3636 195.094 78.2055 194.808 78.1504 194.499C78.1339 194.41 77.9958 194.238 77.876 193.959C77.5706 193.264 77.5881 192.434 77.6104 191.691C77.649 190.411 77.4012 189.093 77.3359 187.815C77.2773 186.667 77.1593 185.385 76.9326 184.26C76.7874 183.542 76.7622 182.77 76.5859 182.063C76.5553 181.931 76.4085 181.981 76.2725 181.22C76.1363 180.458 76.0879 180.024 76.0879 180.073C76.0876 180.124 75.9189 180.821 75.8945 181.131C75.7374 183.312 75.6179 185.476 75.3965 187.637C75.2291 189.27 75.9507 191.479 75.4043 192.97C75.3474 193.127 75.2606 193.872 75.1631 194.044C75.0676 194.216 74.7856 194.216 74.7852 194.307C74.7852 194.691 74.6567 195.098 74.6055 195.479C74.5644 195.479 71.5441 195.509 71.5244 195.479C71.3581 194.844 72.1471 194.688 72.5713 194.423C72.7806 194.251 72.3213 194.406 72.3213 194.406L72.3379 194.243C72.4415 194.152 72.6915 194.21 72.708 194.177C72.7243 194.144 72.7072 193.905 72.7559 193.8C72.813 193.676 73.0412 193.438 72.8271 193.398C72.3939 193.318 72.385 192.158 72.5449 191.915C72.7461 191.611 72.9802 191.225 73.0127 191.037C73.0452 190.849 72.9395 190.414 72.9883 190.201C73.6442 187.335 72.6368 184.244 72.6367 181.288C72.6367 180.673 72.621 179.948 72.5146 179.339C72.4516 179.347 71.8232 179.247 71.8232 179.247V179.117C71.8172 179.116 71.5894 179.067 71.541 179.051C71.3931 179.001 72.1808 175.462 72.2217 175.268C72.2765 174.997 72.309 174.669 72.3496 174.628C72.6748 174.297 72.7771 173.742 72.9062 173.277C72.946 173.134 73.0905 172.657 72.8682 172.917C72.6014 173.229 72.3071 173.498 71.8623 173.498C71.5752 173.498 70.9433 173.154 70.8643 172.817C70.7199 172.161 70.7849 171.487 71.0244 170.868C71.1159 170.632 71.2849 170.463 71.4268 170.256C71.7208 169.817 71.823 169.171 71.9551 168.666C71.9958 168.511 72.2277 167.913 72.3496 167.642C72.4888 167.332 72.5487 166.824 72.8496 166.609C73.6135 166.065 75.4161 166.363 75.957 165.537C76.0107 165.455 75.2416 165.358 75.2012 165.332C74.9744 165.189 75.2327 164.507 75.1445 164.259C75.1039 164.145 74.9919 164.111 75 164.045C75.0081 163.981 75.0248 163.817 75.041 163.718C75.0661 163.564 74.7348 163.583 74.7119 163.399C74.6957 163.269 74.8008 163.178 74.8008 163.178C74.7946 163.175 74.7034 163.128 74.6562 163.048C74.6076 162.965 74.6873 162.751 74.7686 162.638C74.8499 162.524 75.0186 162.524 75.0186 162.524C75.115 162.254 75.2558 161.987 75.3721 161.722C75.5382 161.343 75.9866 161.138 76 161.132C75.8637 161.148 75.5898 160.852 75.5898 160.852L75.6338 160.876C75.7659 160.924 76.0722 160.916 75.9111 160.901C75.7311 160.885 75.7109 160.691 75.71 160.681L75.7314 160.713C75.8557 160.858 76.2037 160.722 76.1201 160.714C76.0343 160.706 76.0012 160.5 76 160.492L76.0117 160.529Z" fill="#C6D2E0"/>
<path d="M105.188 182.856C105.278 182.926 105.367 183.539 105.435 183.675C105.663 184.136 105.75 184.962 106.111 185.338C106.179 185.407 106.088 185.588 106.088 185.588C106.226 185.707 106.302 185.78 106.292 185.906C106.269 186.179 106.383 189.205 106.383 189.458C106.383 189.708 106.496 190.301 106.474 190.461C106.382 191.111 106.41 191.982 106.111 192.577C106.043 192.715 106.111 193.057 106.111 193.057C105.955 193.192 105.624 193.817 105.616 193.831L105.121 193.969C105.184 193.335 105.707 192.801 105.392 192.171C105.224 191.836 105.651 191.793 105.57 191.465C105.525 191.282 105.278 191.031 105.232 190.713C104.991 189.012 104.998 187.284 104.759 185.59C104.736 185.43 104.623 185.294 104.646 185.18C104.697 184.921 104.678 184.37 104.623 184.223C104.565 184.067 104.821 183.941 104.85 183.769C104.872 183.631 104.872 183.473 104.872 183.404C104.872 183.336 105.051 183.313 105.03 183.244C105.008 183.176 105.186 182.859 105.188 182.856Z" fill="#C6D2E0"/>
<path d="M93.54 190.539C93.5458 190.547 93.7523 190.843 93.7988 190.907C93.8747 191.008 93.5255 191.148 93.6133 191.237C93.5288 191.293 93.5266 190.705 93.54 190.539Z" fill="#C6D2E0"/>
<path d="M93.7197 188.737C93.7227 188.777 93.6959 189.194 93.6455 189.065C93.6139 188.985 93.7168 188.744 93.7197 188.737Z" fill="#C6D2E0"/>
<path d="M98.3047 171.977C98.3024 171.979 98.2414 172.047 98.2744 172.106C98.3391 172.223 98.5674 172.364 98.5674 172.51C98.5674 172.526 98.57 172.586 98.5547 172.594C98.5547 172.594 98.4974 172.485 98.4502 172.508C98.2934 172.591 98.4269 172.83 98.5088 172.942C98.6488 173.145 98.1183 173.351 97.9609 173.316C97.6744 173.253 97.9152 172.607 97.9521 172.437C97.9606 172.396 97.9695 171.994 97.9883 171.994C98.0041 171.994 98.2732 171.984 98.3047 171.977Z" fill="#C6D2E0"/>
<path d="M98.8262 171.446C98.817 171.643 98.7998 171.841 98.7998 172.038C98.7797 172.362 98.522 172.044 98.4463 171.948C98.4463 171.948 98.5449 171.939 98.5752 171.91C98.7151 171.786 98.7144 171.577 98.8262 171.446Z" fill="#C6D2E0"/>
<path d="M98.9072 170.629C98.911 170.665 98.9358 170.737 98.8809 170.742C98.8552 170.746 98.2764 170.755 98.2764 170.755L98.2695 170.669C98.3071 170.659 98.8915 170.63 98.9072 170.629Z" fill="#C6D2E0"/>
<path d="M207.598 107.5L262.5 130V137.5L207.5 119L207.598 107.5Z" fill="#C6D2E0"/>
<path d="M95.5 100L133.5 135C133.5 135 129.824 133.242 118.679 131.714L97.5 104.5L111.559 130.888C106.736 130.419 100.955 130.02 94.0645 129.772L95.5 103.5L86.6416 129.575C83.9109 129.527 81.0326 129.5 78 129.5C76.5885 129.5 75.2538 129.548 73.9932 129.635L92.5 105L69.0371 130.225C61.6533 131.506 57.6986 134.149 56.207 135.364L95.5 100Z" fill="#C6D2E0"/>
<path d="M34 122.435V131.808L27.4375 132.5V123L34 122.435Z" fill="#C6D2E0"/>
<path d="M50 121.058V130.12L42 130.964V121.746L50 121.058Z" fill="#C6D2E0"/>
<path d="M65.5 119.725L58 126.488V120.369L65.5 119.725Z" fill="#C6D2E0"/>
<path d="M136 112.842V124.5L124 114.5L136 112.842Z" fill="#C6D2E0"/>
<path d="M152.5 112.239V123.122L142 123.91V113.144L152.5 112.239Z" fill="#C6D2E0"/>
<path d="M262.5 116V123.5L207.5 100L186 102.148V90.8965L207.598 88.5L262.5 116Z" fill="#C6D2E0"/>
<path d="M175.5 110.261V121.397L163 122.335V111.336L175.5 110.261Z" fill="#C6D2E0"/>
<path d="M196.799 108.429L196.75 119.806L186 120.61V109.357L196.799 108.429Z" fill="#C6D2E0"/>
<path d="M34 107.771V117.344L27.4375 118V108.5L34 107.771Z" fill="#C6D2E0"/>
<path d="M50 105.994V115.743L42 116.544V106.883L50 105.994Z" fill="#C6D2E0"/>
<path d="M65.5 104.273V114.194L58 114.943V105.105L65.5 104.273Z" fill="#C6D2E0"/>
<path d="M82.5 101.5L72 111.5V102.71L82.5 101.5Z" fill="#C6D2E0"/>
<path d="M207.598 69.5L262.5 103V110.5L207.5 81L163 86.4355V75.4404L207.598 69.5Z" fill="#C6D2E0"/>
<path d="M136 95.7422V106.392L118.5 109V98.5L136 95.7422Z" fill="#C6D2E0"/>
<path d="M152.5 94.6152V105.497L142 106.547V95.7812L152.5 94.6152Z" fill="#C6D2E0"/>
<path d="M175.5 92.0625V103.197L163 104.447V93.4502L175.5 92.0625Z" fill="#C6D2E0"/>
<path d="M34 92.625V102.197L27.4375 103V93.5L34 92.625Z" fill="#C6D2E0"/>
<path d="M65.5 88.4287V98.3486L42 101.22V91.5596L65.5 88.4287Z" fill="#C6D2E0"/>
<path d="M88.5 85.1729V95.3027L72 97.8115V87.7754L88.5 85.1729Z" fill="#C6D2E0"/>
<path d="M252.788 81.4863L262.5 88V96.5L252.788 90.5V81.4863Z" fill="#C6D2E0"/>
<path d="M109 85.0723V93L97.5 94.2461V86.5L109 85.0723Z" fill="#C6D2E0"/>
<path d="M136 78.4316V89.0801L118 92V81.4561L136 78.4316Z" fill="#C6D2E0"/>
<path d="M152.5 76.8389V87.7188L142 89.002V78.2383L152.5 76.8389Z" fill="#C6D2E0"/>
<path fill-rule="evenodd" clip-rule="evenodd" d="M248.796 79.6416L249.746 80.3066L251.524 88.79L250.548 88.1064L250.16 86.1904L248.386 84.9482L248.02 86.3359L247.066 85.6689L248.796 79.6416ZM248.659 83.9209L249.872 84.7695L249.262 81.6562L248.659 83.9209Z" fill="#C6D2E0"/>
<path d="M65.5 72.9902V82.9102L33.5 88V78.5L65.5 72.9902Z" fill="#C6D2E0"/>
<path d="M246.14 77.7822L247.034 78.4082V85.6465L246.14 85.0205V77.7822Z" fill="#C6D2E0"/>
<path d="M243.1 75.7715C243.336 75.7759 243.628 75.8994 243.976 76.1426C244.498 76.5084 244.906 76.9835 245.199 77.5674C245.492 78.1511 245.648 78.8013 245.665 79.5176L244.767 78.9531C244.727 78.5372 244.642 78.2061 244.512 77.96C244.381 77.7138 244.195 77.506 243.953 77.3369C243.712 77.1681 243.526 77.1053 243.396 77.1484C243.265 77.1919 243.199 77.3141 243.199 77.5146C243.199 77.7121 243.259 77.9199 243.377 78.1377C243.495 78.3555 243.767 78.6945 244.193 79.1543C244.644 79.6445 244.969 80.0567 245.169 80.3906C245.371 80.723 245.525 81.0797 245.631 81.46C245.737 81.8369 245.79 82.2424 245.79 82.6768C245.79 83.3052 245.645 83.7317 245.354 83.9561C245.066 84.1821 244.613 84.0798 243.997 83.6484C242.908 82.8858 242.302 81.6333 242.179 79.8916L243.055 80.3662C243.153 81.36 243.477 82.0486 244.023 82.4316C244.295 82.6214 244.508 82.6775 244.663 82.5986C244.818 82.5164 244.895 82.3353 244.896 82.0557C244.896 81.8912 244.869 81.7322 244.814 81.5791C244.76 81.4259 244.677 81.2741 244.566 81.124C244.455 80.9706 244.187 80.6574 243.761 80.1846C243.379 79.7626 243.099 79.3989 242.922 79.0938C242.744 78.7885 242.603 78.452 242.497 78.085C242.394 77.7163 242.342 77.3624 242.342 77.0234C242.342 76.6286 242.408 76.3195 242.541 76.0967C242.677 75.8756 242.863 75.7671 243.1 75.7715Z" fill="#C6D2E0"/>
<path d="M88.5 69.125V79.2539L72 82.0361V72L88.5 69.125Z" fill="#C6D2E0"/>
<path d="M109 68.5V80L97.5 81.5V70.5L109 68.5Z" fill="#C6D2E0"/>
<path d="M260.678 71.5352L262.124 78.21V72.665L262.788 73.1846V81.4873L262.071 80.9268L260.648 74.4004V79.8154L259.983 79.2959V70.9932L260.678 71.5352Z" fill="#C6D2E0"/>
<path d="M239.234 72.9463L240.28 76.543L241.308 74.3984L242.34 75.1211L240.706 78.1787V81.2148L239.812 80.5889V77.542L238.185 72.2119L239.234 72.9463Z" fill="#C6D2E0"/>
<path fill-rule="evenodd" clip-rule="evenodd" d="M231.723 67.7461L232.617 68.373V74.332L234.85 75.8955V76.3213L236.39 70.9551L237.34 71.6201L239.118 80.1025L238.142 79.4199L237.754 77.5039L235.979 76.2617L235.613 77.6494L231.723 74.9248V67.7461ZM236.253 75.2334L237.466 76.082L236.855 72.9697L236.253 75.2334Z" fill="#C6D2E0"/>
<path fill-rule="evenodd" clip-rule="evenodd" d="M250.909 63.9033V67.5908L252.353 65.0312L253.314 65.7822L251.982 67.9756L253.201 73.3369L254.468 66.6836L255.224 67.2744L256.494 75.7266L257.73 69.2324L258.485 69.8223L259.899 79.2305L259.123 78.624L258.814 76.4971L257.403 75.3945L257.112 77.0527L255.861 76.0752L255.553 73.9482L254.142 72.8457L253.851 74.5049L252.462 73.4189L251.488 68.7627L250.909 69.6973V72.2061L250.198 71.6504V63.3477L250.909 63.9033ZM257.621 74.165L258.586 74.9189L258.101 71.459L257.621 74.165ZM254.359 71.6172L255.323 72.3701L254.839 68.9102L254.359 71.6172Z" fill="#C6D2E0"/>
<path fill-rule="evenodd" clip-rule="evenodd" d="M228.874 65.6924L229.824 66.3574L231.603 74.8408L230.627 74.1572L230.238 72.2412L228.464 70.999L228.099 72.3867L227.145 71.7197L228.874 65.6924ZM228.737 69.9717L229.95 70.8203L229.34 67.707L228.737 69.9717Z" fill="#C6D2E0"/>
<path d="M136 60.875V71.5215L118 74.7471V64.2051L136 60.875Z" fill="#C6D2E0"/>
<path d="M65.5 57.3936V67.3115L27.4375 74.5V65L65.5 57.3936Z" fill="#C6D2E0"/>
<path d="M222.788 61.4307L224.13 62.3701L224.936 67.8721L225.734 63.4941L227.079 64.4355V71.6738L226.248 71.0918V65.3936L225.364 70.4727L224.499 69.8672L223.623 63.5566V69.2539L222.788 68.6689V61.4307Z" fill="#C6D2E0"/>
<path d="M152.5 58.6074V69.4863L142 71.1064V60.3438L152.5 58.6074Z" fill="#C6D2E0"/>
<path d="M247.374 61.4814C247.627 61.358 247.929 61.4331 248.279 61.707C248.701 62.0362 249.038 62.5073 249.291 63.1201C249.546 63.7307 249.709 64.4651 249.781 65.3223L249.076 65.082C249.023 64.6141 248.926 64.2118 248.785 63.875C248.644 63.5382 248.475 63.2928 248.279 63.1396C247.976 62.9026 247.73 62.9393 247.542 63.249C247.354 63.5551 247.26 64.1748 247.26 65.1074C247.26 66.1077 247.362 66.9478 247.565 67.6279C247.74 68.2133 247.976 68.6227 248.273 68.8555C248.413 68.9642 248.557 69.0151 248.706 69.0068C248.857 68.9963 248.991 68.9268 249.108 68.7998V67.7471L248.291 67.1084V65.709L249.829 66.9102V70.2178C249.674 70.448 249.454 70.5794 249.17 70.6104C248.886 70.6412 248.6 70.5448 248.314 70.3213C247.966 70.0488 247.658 69.644 247.392 69.1074C247.125 68.5669 246.914 67.9064 246.757 67.127C246.602 66.3453 246.524 65.5091 246.524 64.6182C246.524 63.7045 246.603 62.984 246.76 62.457C246.918 61.9317 247.123 61.6065 247.374 61.4814Z" fill="#C6D2E0"/>
<path d="M207.598 49.5L220.288 58.5V69.4111L207.5 61L163 67.8662V56.8721L207.598 49.5Z" fill="#C6D2E0"/>
<path d="M268 58.2861V67L264 68.7861L207.245 21.8389L21.5 61V59.4717L21.3662 59.5L21.5 44.5L73 32.5L84.4297 42.4053L135 31.0801V17L205 0L268 58.2861Z" fill="#C6D2E0"/>
<path d="M243.392 58.0303L244.086 58.5723L245.532 65.2471V59.7021L246.196 60.2217V68.5244L245.479 67.9639L244.057 61.4375V66.8525L243.392 66.333V58.0303Z" fill="#C6D2E0"/>
<path d="M103.5 53.5C107.78 53.0495 110.981 57.3449 109.326 61.3174L108 64.5L98.5 66.5C94.1002 62.3098 96.2704 54.9 102.235 53.7451L103.5 53.5Z" fill="#C6D2E0"/>
<path fill-rule="evenodd" clip-rule="evenodd" d="M236.862 52.9287L238.364 54.1025C238.748 54.4026 239.023 54.6921 239.188 54.9717C239.352 55.2475 239.487 55.6119 239.593 56.0645C239.699 56.5134 239.752 56.9953 239.752 57.5088C239.752 58.1581 239.67 58.6174 239.508 58.8867C239.347 59.1575 239.118 59.2274 238.82 59.0967C238.973 59.4276 239.099 59.7588 239.199 60.0898C239.299 60.4171 239.436 60.9727 239.608 61.7568L239.868 62.9424L241.139 56.2695L241.894 56.8594L243.308 66.2676L242.532 65.6611L242.223 63.5342L240.812 62.4316L240.521 64.0898L239.188 63.0488L238.67 60.8379C238.484 60.0392 238.358 59.5318 238.291 59.3174C238.224 59.0994 238.154 58.931 238.079 58.8125C238.005 58.6902 237.885 58.565 237.721 58.4365L237.573 58.3213V61.7871L236.862 61.2314V52.9287ZM241.029 61.2021L241.994 61.9561L241.509 58.4961L241.029 61.2021ZM237.573 56.9961L238.103 57.4092C238.425 57.6614 238.631 57.7961 238.72 57.8125C238.808 57.8248 238.88 57.7688 238.935 57.6455C238.989 57.5223 239.017 57.3231 239.017 57.0479C239.017 56.7835 238.989 56.5501 238.935 56.3486C238.88 56.1435 238.805 55.9737 238.711 55.8398C238.644 55.7462 238.451 55.5744 238.132 55.3252L237.573 54.8887V56.9961Z" fill="#C6D2E0"/>
<path d="M88.5 52.8721V63L72 66.0752V56.041L88.5 52.8721Z" fill="#C6D2E0"/>
<path d="M236.493 52.6406V54.0449L234.582 52.5518V54.3926L236.357 55.7803V57.1787L234.582 55.792V58.0518L236.558 59.5947V60.9941L233.871 58.8945V50.5918L236.493 52.6406Z" fill="#C6D2E0"/>
<path d="M136 43V53.6445L118 57.1982V46.6572L136 43Z" fill="#C6D2E0"/>
<path fill-rule="evenodd" clip-rule="evenodd" d="M232.022 49.1475C232.449 49.481 232.729 49.739 232.86 49.9209C233.07 50.2131 233.243 50.6218 233.378 51.1465C233.515 51.6728 233.584 52.267 233.584 52.9277C233.584 53.5279 233.525 53.9859 233.407 54.3018C233.29 54.6137 233.143 54.7841 232.967 54.8125C232.79 54.8371 232.487 54.6805 232.056 54.3438L231.588 53.9785V57.1113L230.876 56.5547V48.252L232.022 49.1475ZM231.588 52.5684L231.981 52.876C232.246 53.0825 232.425 53.1876 232.52 53.1895C232.616 53.1927 232.694 53.1249 232.755 52.9873C232.816 52.846 232.846 52.6397 232.846 52.3682C232.846 52.0925 232.815 51.8354 232.752 51.5977C232.689 51.36 232.612 51.1732 232.52 51.0371C232.427 50.901 232.232 50.7161 231.935 50.4834L231.588 50.2129V52.5684Z" fill="#C6D2E0"/>
<path d="M226.549 44.8711L227.242 45.4131L228.688 52.0879V46.543L229.354 47.0615V55.3652L228.636 54.8047L227.213 48.2783V53.6934L226.549 53.1738V44.8711Z" fill="#C6D2E0"/>
<path fill-rule="evenodd" clip-rule="evenodd" d="M224.295 43.1104L225.051 43.7002L226.465 53.1084L225.688 52.502L225.38 50.375L223.969 49.2725L223.678 50.9307L222.919 50.3379L224.295 43.1104ZM224.187 48.043L225.15 48.7969L224.665 45.3369L224.187 48.043Z" fill="#C6D2E0"/>
<path d="M207.598 29L207.5 40.5L142 52.8672V42.1074L207.598 29Z" fill="#C6D2E0"/>
<path d="M220.675 40.2812L223.481 42.4746V43.8789L222.436 43.0615V49.96L221.724 49.4043V42.5059L220.675 41.6855V40.2812Z" fill="#C6D2E0"/>
<path fill-rule="evenodd" clip-rule="evenodd" d="M219.803 39.6006L221.217 49.0078L220.44 48.4014L220.132 46.2744L218.721 45.1719L218.43 46.8311L217.671 46.2383L219.047 39.0098L219.803 39.6006ZM218.938 43.9434L219.902 44.6963L219.417 41.2363L218.938 43.9434Z" fill="#C6D2E0"/>
<path fill-rule="evenodd" clip-rule="evenodd" d="M214.768 35.667L216.182 36.7715C216.568 37.073 216.839 37.353 216.996 37.6113C217.153 37.8697 217.286 38.2129 217.394 38.6406C217.501 39.0683 217.555 39.4995 217.555 39.9336C217.555 40.3336 217.509 40.6604 217.417 40.9131C217.325 41.1621 217.205 41.3067 217.058 41.3467C217.267 41.654 217.431 42.0276 217.549 42.4668C217.668 42.9076 217.729 43.3776 217.729 43.876C217.728 44.4798 217.653 44.9322 217.502 45.2334C217.351 45.5308 217.173 45.6485 216.967 45.5859C216.824 45.5421 216.492 45.3163 215.971 44.9092L214.768 43.9697V35.667ZM215.479 43.127L216.141 43.6436C216.43 43.87 216.617 43.9873 216.699 43.9951C216.781 43.999 216.85 43.9374 216.905 43.8105C216.962 43.6813 216.99 43.484 216.99 43.2197C216.99 42.948 216.96 42.7016 216.899 42.4805C216.841 42.2571 216.761 42.0739 216.661 41.9316C216.563 41.7871 216.361 41.5953 216.056 41.3564L215.479 40.9062V43.127ZM215.479 39.5244L215.95 39.8916C216.232 40.1117 216.406 40.239 216.473 40.2725C216.594 40.3296 216.689 40.3058 216.758 40.2012C216.826 40.0924 216.861 39.8997 216.861 39.624C216.861 39.3786 216.832 39.1583 216.775 38.9629C216.721 38.7654 216.654 38.6161 216.573 38.5156C216.495 38.4166 216.267 38.2198 215.891 37.9258L215.479 37.6045V39.5244Z" fill="#C6D2E0"/>
<path fill-rule="evenodd" clip-rule="evenodd" d="M212.523 33.9131L213.278 34.5029L214.692 43.9111L213.917 43.3047L213.608 41.1777L212.197 40.0752L211.906 41.7334L211.147 41.1416L212.523 33.9131ZM212.414 38.8457L213.379 39.5996L212.894 36.1396L212.414 38.8457Z" fill="#C6D2E0"/>
<path d="M210.337 32.2051L211.052 32.7627V38.0195C211.052 38.8689 211.007 39.4671 210.919 39.8135C210.831 40.1596 210.699 40.375 210.522 40.46C210.348 40.5465 210.133 40.4896 209.876 40.2891C209.537 40.0242 209.271 39.5924 209.079 38.9932C208.887 38.3939 208.79 37.64 208.788 36.7324L209.461 37.0771C209.469 37.5702 209.502 37.9412 209.559 38.1895C209.635 38.5283 209.75 38.7576 209.902 38.877C210.051 38.9932 210.161 38.9789 210.231 38.834C210.302 38.6852 210.337 38.2631 210.337 37.5684V32.2051Z" fill="#C6D2E0"/>
</svg>
